<?xml version="1.0" encoding="UTF-8" standalone="no"?>
<svg viewBox="0 0 50 50"
 xmlns="http://www.w3.org/2000/svg" xmlns:xlink="http://www.w3.org/1999/xlink"  version="1.2" baseProfile="tiny">
<title>Qt SVG Document</title>
<desc>Generated with Qt</desc>
<defs>
</defs>
<g fill="none" stroke="black" stroke-width="1" fill-rule="evenodd" stroke-linecap="square" stroke-linejoin="bevel" >

<g fill="#fd5f51" fill-opacity="1" stroke="none" transform="matrix(3.125,0,0,3.125,372.033,-3377.54)"
font-family="Noto Sans" font-size="10" font-weight="400" font-style="normal" 
>
<circle cx="-111.051" cy="1088.81" r="8"/>
</g>

<g fill="#ffffff" fill-opacity="1" stroke="none" transform="matrix(3.125,0,0,3.125,372.033,-3377.54)"
font-family="Noto Sans" font-size="10" font-weight="400" font-style="normal" 
>
<path vector-effect="none" fill-rule="nonzero" d="M-114.586,1084.78 C-114.714,1084.78 -114.841,1084.83 -114.939,1084.93 C-115.135,1085.12 -115.135,1085.44 -114.939,1085.63 L-111.758,1088.81 L-114.939,1092 C-115.135,1092.19 -115.135,1092.51 -114.939,1092.7 C-114.744,1092.9 -114.428,1092.9 -114.232,1092.7 L-111.051,1089.52 L-107.869,1092.7 C-107.673,1092.9 -107.358,1092.9 -107.162,1092.7 C-106.966,1092.51 -106.966,1092.19 -107.162,1092 L-110.344,1088.81 L-107.162,1085.63 C-106.966,1085.44 -106.966,1085.12 -107.162,1084.93 C-107.358,1084.73 -107.673,1084.73 -107.869,1084.93 L-111.051,1088.11 L-114.232,1084.93 C-114.33,1084.83 -114.458,1084.78 -114.586,1084.78 L-114.586,1084.78"/>
</g>

<g fill="none" stroke="#000000" stroke-opacity="1" stroke-width="1" stroke-linecap="square" stroke-linejoin="bevel" transform="matrix(1,0,0,1,0,0)"
font-family="Noto Sans" font-size="10" font-weight="400" font-style="normal" 
>
</g>
</g>
</svg>
