<?xml version="1.0" encoding="UTF-8" standalone="no"?>
<svg viewBox="0 0 50 50"
 xmlns="http://www.w3.org/2000/svg" xmlns:xlink="http://www.w3.org/1999/xlink"  version="1.2" baseProfile="tiny">
<title>Qt SVG Document</title>
<desc>Generated with Qt</desc>
<defs>
</defs>
<g fill="none" stroke="black" stroke-width="1" fill-rule="evenodd" stroke-linecap="square" stroke-linejoin="bevel" >

<g fill="#38c76a" fill-opacity="1" stroke="none" transform="matrix(3.125,0,0,3.125,-215.625,-1985.51)"
font-family="Noto Sans" font-size="10" font-weight="400" font-style="normal" 
>
<circle cx="77" cy="643.362" r="8"/>
</g>

<g fill="#ffffff" fill-opacity="1" stroke="none" transform="matrix(3.125,0,0,3.125,-215.625,-1985.51)"
font-family="Noto Sans" font-size="10" font-weight="400" font-style="normal" 
>
<path vector-effect="none" fill-rule="nonzero" d="M75,639.362 C73.892,639.362 73,640.254 73,641.362 L73,645.362 C73,646.47 73.892,647.362 75,647.362 L79,647.362 C80.108,647.362 81,646.47 81,645.362 L81,641.362 C81,640.254 80.108,639.362 79,639.362 L75,639.362 M75,640.362 L79,640.362 C79.554,640.362 80,640.808 80,641.362 L80,645.362 C80,645.916 79.554,646.362 79,646.362 L75,646.362 C74.446,646.362 74,645.916 74,645.362 L74,641.362 C74,640.808 74.446,640.362 75,640.362 "/>
</g>

<g fill="none" stroke="#000000" stroke-opacity="1" stroke-width="1" stroke-linecap="square" stroke-linejoin="bevel" transform="matrix(1,0,0,1,0,0)"
font-family="Noto Sans" font-size="10" font-weight="400" font-style="normal" 
>
</g>
</g>
</svg>
