<?xml version="1.0" encoding="UTF-8" standalone="no"?>
<svg viewBox="0 0 50 50"
 xmlns="http://www.w3.org/2000/svg" xmlns:xlink="http://www.w3.org/1999/xlink"  version="1.2" baseProfile="tiny">
<title>Qt SVG Document</title>
<desc>Generated with Qt</desc>
<defs>
</defs>
<g fill="none" stroke="black" stroke-width="1" fill-rule="evenodd" stroke-linecap="square" stroke-linejoin="bevel" >

<g fill="#38c76a" fill-opacity="1" stroke="none" transform="matrix(3.125,0,0,3.125,-340.625,-1985.51)"
font-family="Noto Sans" font-size="10" font-weight="400" font-style="normal" 
>
<circle cx="117" cy="643.362" r="8"/>
</g>

<g fill="#ffffff" fill-opacity="1" stroke="none" transform="matrix(3.125,0,0,3.125,-340.625,-1985.51)"
font-family="Noto Sans" font-size="10" font-weight="400" font-style="normal" 
opacity="0.25" >
<circle cx="117" cy="643.362" r="8"/>
</g>

<g fill="#ffffff" fill-opacity="1" stroke="none" transform="matrix(3.125,0,0,3.125,-340.625,-1985.51)"
font-family="Noto Sans" font-size="10" font-weight="400" font-style="normal" 
>
<path vector-effect="none" fill-rule="nonzero" d="M115,639.362 C113.892,639.362 113,640.254 113,641.362 L113,645.362 C113,646.47 113.892,647.362 115,647.362 L119,647.362 C120.108,647.362 121,646.47 121,645.362 L121,641.362 C121,640.254 120.108,639.362 119,639.362 L115,639.362 M115,640.362 L119,640.362 C119.554,640.362 120,640.808 120,641.362 L120,645.362 C120,645.916 119.554,646.362 119,646.362 L115,646.362 C114.446,646.362 114,645.916 114,645.362 L114,641.362 C114,640.808 114.446,640.362 115,640.362 "/>
</g>

<g fill="none" stroke="#000000" stroke-opacity="1" stroke-width="1" stroke-linecap="square" stroke-linejoin="bevel" transform="matrix(1,0,0,1,0,0)"
font-family="Noto Sans" font-size="10" font-weight="400" font-style="normal" 
>
</g>
</g>
</svg>
