<?xml version="1.0" encoding="UTF-8" standalone="no"?>
<svg viewBox="0 0 50 50"
 xmlns="http://www.w3.org/2000/svg" xmlns:xlink="http://www.w3.org/1999/xlink"  version="1.2" baseProfile="tiny">
<title>Qt SVG Document</title>
<desc>Generated with Qt</desc>
<defs>
</defs>
<g fill="none" stroke="black" stroke-width="1" fill-rule="evenodd" stroke-linecap="square" stroke-linejoin="bevel" >

<g fill="#38c76a" fill-opacity="1" stroke="none" transform="matrix(3.125,0,0,3.125,-215.625,-2241.76)"
font-family="Noto Sans" font-size="10" font-weight="400" font-style="normal" 
>
<circle cx="77" cy="725.362" r="8"/>
</g>

<g fill="#ffffff" fill-opacity="1" stroke="none" transform="matrix(3.125,0,0,3.125,0,0)"
font-family="Noto Sans" font-size="10" font-weight="400" font-style="normal" 
>
<path vector-effect="none" fill-rule="nonzero" d="M6,6 C4.892,6 4,6.892 4,8 L4,10 C4,11.108 4.892,12 6,12 L8,12 C9.108,12 10,11.108 10,10 L10,8 C10,6.892 9.108,6 8,6 L6,6 M6,7 L8,7 C8.554,7 9,7.446 9,8 L9,10 C9,10.554 8.554,11 8,11 L6,11 C5.446,11 5,10.554 5,10 L5,8 C5,7.446 5.446,7 6,7 "/>
</g>

<g fill="#ffffff" fill-opacity="1" stroke="none" transform="matrix(3.125,0,0,3.125,0,0)"
font-family="Noto Sans" font-size="10" font-weight="400" font-style="normal" 
opacity="0.35" >
<path vector-effect="none" fill-rule="nonzero" d="M8,4 C6.892,4 6,4.892 6,6 L7,6 C7,5.446 7.446,5 8,5 L10,5 C10.554,5 11,5.446 11,6 L11,8 C11,8.554 10.554,9 10,9 L10,10 C11.108,10 12,9.108 12,8 L12,6 C12,4.892 11.108,4 10,4 L8,4"/>
</g>

<g fill="none" stroke="#000000" stroke-opacity="1" stroke-width="1" stroke-linecap="square" stroke-linejoin="bevel" transform="matrix(1,0,0,1,0,0)"
font-family="Noto Sans" font-size="10" font-weight="400" font-style="normal" 
>
</g>
</g>
</svg>
