<?xml version="1.0" encoding="UTF-8" standalone="no"?>
<svg viewBox="0 0 50 50"
 xmlns="http://www.w3.org/2000/svg" xmlns:xlink="http://www.w3.org/1999/xlink"  version="1.2" baseProfile="tiny">
<title>Qt SVG Document</title>
<desc>Generated with Qt</desc>
<defs>
</defs>
<g fill="none" stroke="black" stroke-width="1" fill-rule="evenodd" stroke-linecap="square" stroke-linejoin="bevel" >

<g fill="#fdbe04" fill-opacity="1" stroke="none" transform="matrix(3.125,0,0,3.125,-340.625,-2113.63)"
font-family="Noto Sans" font-size="10" font-weight="400" font-style="normal" 
>
<circle cx="117" cy="684.362" r="8"/>
</g>

<g fill="#ffffff" fill-opacity="1" stroke="none" transform="matrix(3.125,0,0,3.125,-340.625,-2113.63)"
font-family="Noto Sans" font-size="10" font-weight="400" font-style="normal" 
opacity="0.25" >
<circle cx="117" cy="684.362" r="8"/>
</g>

<g fill="#ffffff" fill-opacity="1" stroke="none" transform="matrix(3.125,0,0,3.125,-340.625,-2113.63)"
font-family="Noto Sans" font-size="10" font-weight="400" font-style="normal" 
>
<path vector-effect="none" fill-rule="evenodd" d="M113,684.862 C113,684.586 113.215,684.362 113.48,684.362 L120.52,684.362 C120.785,684.362 121,684.586 121,684.862 C121,685.138 120.785,685.362 120.52,685.362 L113.48,685.362 C113.215,685.362 113,685.138 113,684.862 "/>
</g>

<g fill="none" stroke="#000000" stroke-opacity="1" stroke-width="1" stroke-linecap="square" stroke-linejoin="bevel" transform="matrix(1,0,0,1,0,0)"
font-family="Noto Sans" font-size="10" font-weight="400" font-style="normal" 
>
</g>
</g>
</svg>
